<svg width="612" height="555" viewBox="0 0 612 555" fill="none" xmlns="http://www.w3.org/2000/svg">
<path d="M117.306 4.75781C122.106 2.05781 127.806 2.05781 132.606 4.75781L238.206 64.9578C243.006 67.6578 245.806 72.8578 245.806 78.4578V200.058C245.806 205.658 243.006 210.858 238.206 213.558L132.606 273.758C127.806 276.458 122.106 276.458 117.306 273.758L11.7056 213.558C6.90561 210.858 4.10561 205.658 4.10561 200.058V78.4578C4.10561 72.8578 6.90561 67.6578 11.7056 64.9578L117.306 4.75781Z" fill="url(#paint0_linear_5_85)"/>
<path d="M500 550C555.228 550 600 505.228 600 450C600 394.772 555.228 350 500 350C444.772 350 400 394.772 400 450C400 505.228 444.772 550 500 550Z" fill="#F9A75E"/>
<path d="M500 550C444.772 550 400 505.228 400 450C400 394.772 444.772 350 500 350C555.228 350 600 394.772 600 450C600 505.228 555.228 550 500 550ZM460 450C460 427.909 477.909 410 500 410C522.091 410 540 427.909 540 450C540 472.091 522.091 490 500 490C477.909 490 460 472.091 460 450Z" fill="#78D1C5"/>
<path d="M495.2 278.8C502.8 281.2 502.8 290.8 495.2 293.2L358.4 340.4C350.8 342.8 344 337.6 344 329.2V242.8C344 234.4 350.8 229.2 358.4 231.6L495.2 278.8Z" fill="url(#paint1_linear_5_85)"/>
<path d="M298 250C298 259.941 290.165 268 280.5 268C270.835 268 263 259.941 263 250C263 240.059 270.835 232 280.5 232C290.165 232 298 240.059 298 250Z" fill="#F9A75E"/>
<path d="M422.194 51.5C414.994 48.7 414.994 38.5 422.194 35.7L461.794 22.3C468.994 19.5 475.794 25.5 475.794 33.1V54.1C475.794 61.7 468.994 67.7 461.794 64.9L422.194 51.5Z" fill="#C99458"/>
<path d="M455.571 52.3335L422.142 38.3575C421.142 37.9575 420.571 36.9195 420.571 35.9895C420.571 34.6155 421.857 33.5715 423.142 33.9715L456.571 47.9475C457.571 48.3475 458.142 49.3855 458.142 50.4155C458.142 51.7895 456.857 52.8335 455.571 52.4335V52.3335Z" fill="#000000" fill-opacity="0.26"/>
<path d="M246.516 288.08C236.877 282.84 236.877 269.16 246.516 263.92L319.464 225.52C329.103 220.28 341 227.62 341 238.6V313.4C341 324.38 329.103 331.72 319.464 326.48L246.516 288.08Z" fill="#C99458"/>
<path d="M510.963 120.3C510.963 115.5 506.776 111.4 501.963 111.4C497.149 111.4 492.963 115.5 492.963 120.3L492.963 133.4H476.963V120.3C476.963 106.8 487.676 96.1 501.163 96.1C508.063 96.1 514.363 98.8 519.263 103.8L524.363 98.7C518.363 92.7 510.363 89.2 501.163 89.2C484.076 89.2 470.063 102.3 470.063 118.2L470.063 133.4H457.963V141.4H470.063V173.3L476.963 174.1V141.4H492.963V148.2C492.963 153 497.149 157.1 501.963 157.1C506.776 157.1 510.963 153 510.963 148.2L510.963 120.3Z" fill="#C99458"/>
<path d="M410 188.019C426.569 188.019 440 174.588 440 158.019C440 141.451 426.569 128.019 410 128.019C393.431 128.019 380 141.451 380 158.019C380 174.588 393.431 188.019 410 188.019Z" fill="#E4AA62"/>
<path d="M346 160C346 177.121 332.121 191 315 191C297.879 191 284 177.121 284 160C284 142.879 297.879 129 315 129C332.121 129 346 142.879 346 160Z" fill="#C99458"/>
<path d="M315 129C297.879 129 284 142.879 284 160C284 177.121 297.879 191 315 191C332.121 191 346 177.121 346 160C346 142.879 332.121 129 315 129ZM315 183C301.745 183 291 172.255 291 159C291 145.745 301.745 135 315 135C328.255 135 339 145.745 339 159C339 172.255 328.255 183 315 183Z" fill="#E4AA62"/>
<path d="M315 160C318.314 160 321 157.314 321 154C321 150.686 318.314 148 315 148C311.686 148 309 150.686 309 154C309 157.314 311.686 160 315 160Z" fill="#E4AA62"/>
<path d="M346 100C346 117.121 332.121 131 315 131C297.879 131 284 117.121 284 100C284 82.8792 297.879 69 315 69C332.121 69 346 82.8792 346 100Z" fill="#C99458"/>
<path d="M315 69C297.879 69 284 82.8792 284 100C284 117.121 297.879 131 315 131C332.121 131 346 117.121 346 100C346 82.8792 332.121 69 315 69ZM315 123C301.745 123 291 112.255 291 99C291 85.7452 301.745 75 315 75C328.255 75 339 85.7452 339 99C339 112.255 328.255 123 315 123Z" fill="#E4AA62"/>
<path d="M315 100C318.314 100 321 97.3137 321 94C321 90.6863 318.314 88 315 88C311.686 88 309 90.6863 309 94C309 97.3137 311.686 100 315 100Z" fill="#E4AA62"/>
<path d="M410 188.019C426.569 188.019 440 174.588 440 158.019C440 141.451 426.569 128.019 410 128.019C393.431 128.019 380 141.451 380 158.019C380 174.588 393.431 188.019 410 188.019Z" fill="#C99458"/>
<path d="M410 128.019C393.431 128.019 380 141.451 380 158.019C380 174.588 393.431 188.019 410 188.019C426.569 188.019 440 174.588 440 158.019C440 141.451 426.569 128.019 410 128.019ZM410 180.019C397.294 180.019 387 169.725 387 157.019C387 144.314 397.294 134.019 410 134.019C422.706 134.019 433 144.314 433 157.019C433 169.725 422.706 180.019 410 180.019Z" fill="#E4AA62"/>
<path d="M410 158.019C413.314 158.019 416 155.333 416 152.019C416 148.705 413.314 146.019 410 146.019C406.686 146.019 404 148.705 404 152.019C404 155.333 406.686 158.019 410 158.019Z" fill="#E4AA62"/>
<path d="M347 220C347 237.121 333.121 251 316 251C298.879 251 285 237.121 285 220C285 202.879 298.879 189 316 189C333.121 189 347 202.879 347 220Z" fill="#C99458"/>
<path d="M316 189C298.879 189 285 202.879 285 220C285 237.121 298.879 251 316 251C333.121 251 347 237.121 347 220C347 202.879 333.121 189 316 189ZM316 243C302.745 243 292 232.255 292 219C292 205.745 302.745 195 316 195C329.255 195 340 205.745 340 219C340 232.255 329.255 243 316 243Z" fill="#E4AA62"/>
<path d="M316 220C319.314 220 322 217.314 322 214C322 210.686 319.314 208 316 208C312.686 208 310 210.686 310 214C310 217.314 312.686 220 316 220Z" fill="#E4AA62"/>
<path d="M261 179C271.493 179 280 170.493 280 160C280 149.507 271.493 141 261 141C250.507 141 242 149.507 242 160C242 170.493 250.507 179 261 179Z" fill="#000000" fill-opacity="0.1"/>
<path d="M259 103C269.493 103 278 94.4934 278 84C278 73.5066 269.493 65 259 65C248.507 65 240 73.5066 240 84C240 94.4934 248.507 103 259 103Z" fill="#000000" fill-opacity="0.1"/>
<path d="M380 160C380 170.493 371.493 179 361 179C350.507 179 342 170.493 342 160C342 149.507 350.507 141 361 141C371.493 141 380 149.507 380 160Z" fill="#000000" fill-opacity="0.1"/>
<path d="M380 220C380 230.493 371.493 239 361 239C350.507 239 342 230.493 342 220C342 209.507 350.507 201 361 201C371.493 201 380 209.507 380 220Z" fill="#000000" fill-opacity="0.1"/>
<path d="M375.908 107.57C377.908 107.57 378.908 105.17 377.908 103.57L374.908 97.9696C373.908 96.3696 371.908 96.3696 370.908 97.9696L367.908 103.57C366.908 105.17 367.908 107.57 369.908 107.57H375.908Z" fill="#000000" fill-opacity="0.1"/>
<path d="M341 329.24L495.2 293.24C502.8 290.84 502.8 281.16 495.2 278.76L358.4 231.56C350.8 229.16 344 234.36 344 242.76V329.16C344 337.56 350.8 342.76 358.4 340.36L341 329.24Z" fill="#000000" fill-opacity="0.05"/>
<path d="M410 188.019C426.569 188.019 440 174.588 440 158.019C440 141.451 426.569 128.019 410 128.019C393.431 128.019 380 141.451 380 158.019C380 174.588 393.431 188.019 410 188.019Z" fill="url(#paint2_radial_5_85)" fill-opacity="0.4"/>
<path d="M315 191C332.121 191 346 177.121 346 160C346 142.879 332.121 129 315 129C297.879 129 284 142.879 284 160C284 177.121 297.879 191 315 191Z" fill="url(#paint3_radial_5_85)" fill-opacity="0.4"/>
<path d="M315 131C332.121 131 346 117.121 346 100C346 82.8792 332.121 69 315 69C297.879 69 284 82.8792 284 100C284 117.121 297.879 131 315 131Z" fill="url(#paint4_radial_5_85)" fill-opacity="0.4"/>
<path d="M316 251C333.121 251 347 237.121 347 220C347 202.879 333.121 189 316 189C298.879 189 285 202.879 285 220C285 237.121 298.879 251 316 251Z" fill="url(#paint5_radial_5_85)" fill-opacity="0.4"/>
<path d="M608.204 433.82C608.204 433.82 595.604 402.02 553.604 402.02C511.604 402.02 499.004 433.82 499.004 433.82L517.004 429.32L553.604 456.02L590.204 429.32L608.204 433.82Z" fill-opacity="0.01"/>
<path d="M495.2 293.2L358.4 340.4C350.8 342.8 344 337.6 344 329.2V329.2L495.2 293.2Z" fill-opacity="0.01"/>
<path d="M495.2 293.2L358.4 340.4C350.8 342.8 344 337.6 344 329.2V242.8C344 234.4 350.8 229.2 358.4 231.6L495.2 278.8C502.8 281.2 502.8 290.8 495.2 293.2Z" fill-opacity="0.01"/>
<path d="M495.2 278.8C502.8 281.2 502.8 290.8 495.2 293.2L358.4 340.4C350.8 342.8 344 337.6 344 329.2V242.8C344 234.4 350.8 229.2 358.4 231.6L495.2 278.8Z" fill-opacity="0.01"/>
<path d="M124.906 278.158C124.906 278.158 35.8056 220.158 3.40561 247.958L124.906 278.158Z" fill-opacity="0.01"/>
<path d="M455.571 52.3335L422.142 38.3575C421.142 37.9575 420.571 36.9195 420.571 35.9895C420.571 34.6155 421.857 33.5715 423.142 33.9715L456.571 47.9475C457.571 48.3475 458.142 49.3855 458.142 50.4155C458.142 51.7895 456.857 52.8335 455.571 52.4335V52.3335Z" fill-opacity="0.01"/>
<path d="M375.908 107.57C377.908 107.57 378.908 105.17 377.908 103.57L374.908 97.9696C373.908 96.3696 371.908 96.3696 370.908 97.9696L367.908 103.57C366.908 105.17 367.908 107.57 369.908 107.57H375.908Z" fill-opacity="0.01"/>
<path d="M495.2 293.2L358.4 340.4C350.8 342.8 344 337.6 344 329.2V242.8C344 234.4 350.8 229.2 358.4 231.6L495.2 278.8C502.8 281.2 502.8 290.8 495.2 293.2Z" fill="url(#paint6_linear_5_85)"/>
<path d="M316 251C333.121 251 347 237.121 347 220C347 202.879 333.121 189 316 189C298.879 189 285 202.879 285 220C285 237.121 298.879 251 316 251Z" fill="#B07C55"/>
<path d="M316 189C298.879 189 285 202.879 285 220C285 237.121 298.879 251 316 251C333.121 251 347 237.121 347 220C347 202.879 333.121 189 316 189ZM316 243C302.745 243 292 232.255 292 219C292 205.745 302.745 195 316 195C329.255 195 340 205.745 340 219C340 232.255 329.255 243 316 243Z" fill="#C5926A"/>
<path d="M316 220C319.314 220 322 217.314 322 214C322 210.686 319.314 208 316 208C312.686 208 310 210.686 310 214C310 217.314 312.686 220 316 220Z" fill="#C5926A"/>
<path d="M346 160C346 177.121 332.121 191 315 191C297.879 191 284 177.121 284 160C284 142.879 297.879 129 315 129C332.121 129 346 142.879 346 160Z" fill="#B07C55"/>
<path d="M315 129C297.879 129 284 142.879 284 160C284 177.121 297.879 191 315 191C332.121 191 346 177.121 346 160C346 142.879 332.121 129 315 129ZM315 183C301.745 183 291 172.255 291 159C291 145.745 301.745 135 315 135C328.255 135 339 145.745 339 159C339 172.255 328.255 183 315 183Z" fill="#C5926A"/>
<path d="M315 160C318.314 160 321 157.314 321 154C321 150.686 318.314 148 315 148C311.686 148 309 150.686 309 154C309 157.314 311.686 160 315 160Z" fill="#C5926A"/>
<path d="M346 100C346 117.121 332.121 131 315 131C297.879 131 284 117.121 284 100C284 82.8792 297.879 69 315 69C332.121 69 346 82.8792 346 100Z" fill="#B07C55"/>
<path d="M315 69C297.879 69 284 82.8792 284 100C284 117.121 297.879 131 315 131C332.121 131 346 117.121 346 100C346 82.8792 332.121 69 315 69ZM315 123C301.745 123 291 112.255 291 99C291 85.7452 301.745 75 315 75C328.255 75 339 85.7452 339 99C339 112.255 328.255 123 315 123Z" fill="#C5926A"/>
<path d="M315 100C318.314 100 321 97.3137 321 94C321 90.6863 318.314 88 315 88C311.686 88 309 90.6863 309 94C309 97.3137 311.686 100 315 100Z" fill="#C5926A"/>
<path d="M410 188.019C426.569 188.019 440 174.588 440 158.019C440 141.451 426.569 128.019 410 128.019C393.431 128.019 380 141.451 380 158.019C380 174.588 393.431 188.019 410 188.019Z" fill="#B07C55"/>
<path d="M410 128.019C393.431 128.019 380 141.451 380 158.019C380 174.588 393.431 188.019 410 188.019C426.569 188.019 440 174.588 440 158.019C440 141.451 426.569 128.019 410 128.019ZM410 180.019C397.294 180.019 387 169.725 387 157.019C387 144.314 397.294 134.019 410 134.019C422.706 134.019 433 144.314 433 157.019C433 169.725 422.706 180.019 410 180.019Z" fill="#C5926A"/>
<path d="M410 158.019C413.314 158.019 416 155.333 416 152.019C416 148.705 413.314 146.019 410 146.019C406.686 146.019 404 148.705 404 152.019C404 155.333 406.686 158.019 410 158.019Z" fill="#C5926A"/>
<path d="M341 329.2V238.6C341 227.62 329.103 220.28 319.464 225.52L246.516 263.92C236.877 269.16 236.877 282.84 246.516 288.08L319.464 326.48C329.103 331.72 341 324.38 341 313.4V329.2Z" fill="#4C9E93"/>
<path d="M510.963 120.3C510.963 115.5 506.776 111.4 501.963 111.4C497.149 111.4 492.963 115.5 492.963 120.3V133.4H476.963V120.3C476.963 106.8 487.676 96.1 501.163 96.1C508.063 96.1 514.363 98.8 519.263 103.8L524.363 98.7C518.363 92.7 510.363 89.2 501.163 89.2C484.076 89.2 470.063 102.3 470.063 118.2V133.4H457.963V141.4H470.063V173.3L476.963 174.1V141.4H492.963V148.2C492.963 153 497.149 157.1 501.963 157.1C506.776 157.1 510.963 153 510.963 148.2V120.3Z" fill="#B07C55"/>
<path d="M422.194 51.5C414.994 48.7 414.994 38.5 422.194 35.7L461.794 22.3C468.994 19.5 475.794 25.5 475.794 33.1V54.1C475.794 61.7 468.994 67.7 461.794 64.9L422.194 51.5Z" fill="#B07C55"/>
<path d="M455.571 52.3335L422.142 38.3575C421.142 37.9575 420.571 36.9195 420.571 35.9895C420.571 34.6155 421.857 33.5715 423.142 33.9715L456.571 47.9475C457.571 48.3475 458.142 49.3855 458.142 50.4155C458.142 51.7895 456.857 52.8335 455.571 52.4335V52.3335Z" fill="#000000" fill-opacity="0.26"/>
<path d="M341 313.4V238.6C341 227.62 329.103 220.28 319.464 225.52L246.516 263.92C236.877 269.16 236.877 282.84 246.516 288.08L319.464 326.48C329.103 331.72 341 324.38 341 313.4Z" fill="#E4AA62"/>
<path d="M260 178C270.493 178 279 169.493 279 159C279 148.507 270.493 140 260 140C249.507 140 241 148.507 241 159C241 169.493 249.507 178 260 178Z" fill="#000000" fill-opacity="0.1"/>
<path d="M258 102C268.493 102 277 93.4934 277 83C277 72.5066 268.493 64 258 64C247.507 64 239 72.5066 239 83C239 93.4934 247.507 102 258 102Z" fill="#000000" fill-opacity="0.1"/>
<path d="M379 159C379 169.493 370.493 178 360 178C349.507 178 341 169.493 341 159C341 148.507 349.507 140 360 140C370.493 140 379 148.507 379 159Z" fill="#000000" fill-opacity="0.1"/>
<path d="M379 219C379 229.493 370.493 238 360 238C349.507 238 341 229.493 341 219C341 208.507 349.507 200 360 200C370.493 200 379 208.507 379 219Z" fill="#000000" fill-opacity="0.1"/>
<path d="M374.908 106.57C376.908 106.57 377.908 104.17 376.908 102.57L373.908 96.9696C372.908 95.3696 370.908 95.3696 369.908 96.9696L366.908 102.57C365.908 104.17 366.908 106.57 368.908 106.57H374.908Z" fill="#000000" fill-opacity="0.1"/>
<path d="M124.906 278.158C124.906 278.158 35.8056 220.158 3.40561 247.958L124.906 278.158Z" fill-opacity="0.01"/>
<path d="M455.571 52.3335L422.142 38.3575C421.142 37.9575 420.571 36.9195 420.571 35.9895C420.571 34.6155 421.857 33.5715 423.142 33.9715L456.571 47.9475C457.571 48.3475 458.142 49.3855 458.142 50.4155C458.142 51.7895 456.857 52.8335 455.571 52.4335V52.3335Z" fill-opacity="0.01"/>
<path d="M375.908 107.57C377.908 107.57 378.908 105.17 377.908 103.57L374.908 97.9696C373.908 96.3696 371.908 96.3696 370.908 97.9696L367.908 103.57C366.908 105.17 367.908 107.57 369.908 107.57H375.908Z" fill-opacity="0.01"/>
<path d="M117.306 4.75781C122.106 2.05781 127.806 2.05781 132.606 4.75781L238.206 64.9578C243.006 67.6578 245.806 72.8578 245.806 78.4578V200.058C245.806 205.658 243.006 210.858 238.206 213.558L132.606 273.758C127.806 276.458 122.106 276.458 117.306 273.758L11.7056 213.558C6.90561 210.858 4.10561 205.658 4.10561 200.058V78.4578C4.10561 72.8578 6.90561 67.6578 11.7056 64.9578L117.306 4.75781Z" fill-opacity="0.01"/>
<path d="M132.606 273.758C127.806 276.458 122.106 276.458 117.306 273.758L11.7056 213.558C6.90561 210.858 4.10561 205.658 4.10561 200.058V78.4578C4.10561 72.8578 6.90561 67.6578 11.7056 64.9578L117.306 4.75781C122.106 2.05781 127.806 2.05781 132.606 4.75781L238.206 64.9578C243.006 67.6578 245.806 72.8578 245.806 78.4578V200.058C245.806 205.658 243.006 210.858 238.206 213.558L132.606 273.758Z" fill="url(#paint7_linear_5_85)"/>
<path d="M234 68L125 4.5L16 68V206L125 270L234 206V68Z" fill="#C99458"/>
<path d="M117.306 4.75781L238.206 64.9578C243.006 67.6578 245.806 72.8578 245.806 78.4578V200.058C245.806 205.658 243.006 210.858 238.206 213.558L132.606 273.758C127.806 276.458 122.106 276.458 117.306 273.758L11.7056 213.558C6.90561 210.858 4.10561 205.658 4.10561 200.058V78.4578C4.10561 72.8578 6.90561 67.6578 11.7056 64.9578L117.306 4.75781Z" fill="#D29D5D"/>
<path d="M125 278C119.5 278 115.5 275.5 115.5 270L22.5 212C22.5 206.5 25 204 30.5 204L125 244L220.5 204C225.5 204 228.5 206 228.5 212L135 270C135 275.5 130.5 278 125 278Z" fill="#E8B873"/>
<path d="M234 68L125 4.5L16 68L125 125L234 68Z" fill="#E8B873"/>
<path d="M16 68V206L125 270V125L16 68Z" fill="#D8A869"/>
<path d="M234 68V206L125 270V125L234 68Z" fill="#C08B4A"/>
<path d="M238.206 64.9578L132.606 4.75781C127.806 2.05781 122.106 2.05781 117.306 4.75781L11.7056 64.9578C6.90561 67.6578 4.10561 72.8578 4.10561 78.4578V200.058C4.10561 205.658 6.90561 210.858 11.7056 213.558L117.306 273.758C122.106 276.458 127.806 276.458 132.606 273.758L238.206 213.558C243.006 210.858 245.806 205.658 245.806 200.058V78.4578C245.806 72.8578 243.006 67.6578 238.206 64.9578Z" fill="#D29D5D"/>
<path d="M225.5 68L125 13L25.5 68V205L125 269L225.5 205V68Z" fill="#C99458"/>
<path d="M117.306 4.75781L238.206 64.9578C243.006 67.6578 245.806 72.8578 245.806 78.4578V200.058C245.806 205.658 243.006 210.858 238.206 213.558L132.606 273.758C127.806 276.458 122.106 276.458 117.306 273.758L11.7056 213.558C6.90561 210.858 4.10561 205.658 4.10561 200.058V78.4578C4.10561 72.8578 6.90561 67.6578 11.7056 64.9578L117.306 4.75781Z" fill="#D29D5D"/>
<path d="M125 278C119.5 278 115.5 275.5 115.5 270L22.5 212C22.5 206.5 25 204 30.5 204L125 244L220.5 204C225.5 204 228.5 206 228.5 212L135 270C135 275.5 130.5 278 125 278Z" fill="#E8B873"/>
<path d="M225.5 68L125 13L25.5 68L125 125L225.5 68Z" fill="#E8B873"/>
<path d="M25.5 68V205L125 269V125L25.5 68Z" fill="#D8A869"/>
<path d="M225.5 68V205L125 269V125L225.5 68Z" fill="#C08B4A"/>
<path d="M495.2 278.8C502.8 281.2 502.8 290.8 495.2 293.2L358.4 340.4C350.8 342.8 344 337.6 344 329.2V242.8C344 234.4 350.8 229.2 358.4 231.6L495.2 278.8Z" fill="url(#paint8_linear_5_85)"/>
<path d="M341 329.2L495.2 293.2C502.8 290.8 502.8 281.2 495.2 278.8L358.4 231.6C350.8 229.2 344 234.4 344 242.8V329.2Z" fill="url(#paint9_linear_5_85)"/>
<path d="M495.2 278.8C502.8 281.2 502.8 290.8 495.2 293.2L358.4 340.4C350.8 342.8 344 337.6 344 329.2V242.8C344 234.4 350.8 229.2 358.4 231.6L495.2 278.8Z" fill-opacity="0.01"/>
<path d="M600 450C600 505.228 555.228 550 500 550C444.772 550 400 505.228 400 450C400 394.772 444.772 350 500 350C555.228 350 600 394.772 600 450Z" fill="url(#paint10_linear_5_85)"/>
<path d="M500 550C444.772 550 400 505.228 400 450C400 394.772 444.772 350 500 350C555.228 350 600 394.772 600 450C600 505.228 555.228 550 500 550Z" fill="url(#paint11_linear_5_85)"/>
<path d="M500 550C444.772 550 400 505.228 400 450C400 394.772 444.772 350 500 350C555.228 350 600 394.772 600 450C600 505.228 555.228 550 500 550Z" fill="url(#paint12_linear_5_85)"/>
<path d="M460 450C460 427.909 477.909 410 500 410C522.091 410 540 427.909 540 450C540 472.091 522.091 490 500 490C477.909 490 460 472.091 460 450Z" fill="#3D7D74"/>
<path d="M500 410C477.909 410 460 427.909 460 450C460 472.091 477.909 490 500 490C522.091 490 540 472.091 540 450C540 427.909 522.091 410 500 410Z" fill="url(#paint13_linear_5_85)"/>
<path d="M500 490C522.091 490 540 472.091 540 450C540 427.909 522.091 410 500 410C477.909 410 460 427.909 460 450C460 472.091 477.909 490 500 490Z" fill="url(#paint14_linear_5_85)"/>
<path d="M500 410C477.909 410 460 427.909 460 450C460 472.091 477.909 490 500 490C522.091 490 540 472.091 540 450C540 427.909 522.091 410 500 410Z" fill="url(#paint15_linear_5_85)"/>
<path d="M500 410C522.091 410 540 427.909 540 450C540 472.091 522.091 490 500 490C477.909 490 460 472.091 460 450C460 427.909 477.909 410 500 410Z" fill="#3D7D74"/>
<path d="M500 410C477.909 410 460 427.909 460 450C460 472.091 477.909 490 500 490C522.091 490 540 472.091 540 450C540 427.909 522.091 410 500 410Z" fill="url(#paint16_linear_5_85)"/>
<path d="M499 433.8L517 429.3L553.6 456L590.2 429.3L608.2 433.8C608.2 433.8 595.6 402 553.6 402C511.6 402 499 433.8 499 433.8Z" fill="#3D7D74"/>
<path d="M590.2 429.3L608.2 433.8C608.2 433.8 595.6 402 553.6 402C511.6 402 499 433.8 499 433.8L517 429.3L553.6 456L590.2 429.3Z" fill="url(#paint17_linear_5_85)"/>
<path d="M590.2 429.3L553.6 456L517 429.3L499 433.8C499 433.8 511.6 402 553.6 402C595.6 402 608.2 433.8 608.2 433.8L590.2 429.3Z" fill="url(#paint18_linear_5_85)"/>
<path d="M499 433.8C499 433.8 511.6 402 553.6 402C595.6 402 608.2 433.8 608.2 433.8L590.2 429.3L553.6 456L517 429.3L499 433.8Z" fill="url(#paint19_linear_5_85)"/>
<path d="M517 429.3L499 433.8C499 433.8 511.6 402 553.6 402C595.6 402 608.2 433.8 608.2 433.8L590.2 429.3L517 429.3Z" fill="#E4AA62"/>
<path d="M517 429.3L553.6 456L590.2 429.3L608.2 433.8C608.2 433.8 595.6 402 553.6 402C511.6 402 499 433.8 499 433.8L517 429.3Z" fill="url(#paint20_linear_5_85)"/>
<path d="M553.6 456L517 429.3L499 433.8C499 433.8 511.6 402 553.6 402C595.6 402 608.2 433.8 608.2 433.8L590.2 429.3L553.6 456Z" fill="url(#paint21_linear_5_85)"/>
<path d="M517 429.3C517 429.3 499 433.8 499 433.8C499 433.8 511.6 402 553.6 402C595.6 402 608.2 433.8 608.2 433.8L590.2 429.3L553.6 456L517 429.3Z" fill="url(#paint22_linear_5_85)"/>
<path d="M495.2 278.8C502.8 281.2 502.8 290.8 495.2 293.2L358.4 340.4C350.8 342.8 344 337.6 344 329.2V242.8C344 234.4 350.8 229.2 358.4 231.6L495.2 278.8Z" fill="#E4AA62"/>
<path d="M341 329.2L495.2 293.2C502.8 290.8 502.8 281.2 495.2 278.8L358.4 231.6C350.8 229.2 344 234.4 344 242.8V329.2Z" fill="url(#paint23_linear_5_85)"/>
<path d="M341 329.2V242.8C344 234.4 350.8 229.2 358.4 231.6L495.2 278.8C502.8 281.2 502.8 290.8 495.2 293.2L358.4 340.4C350.8 342.8 344 337.6 344 329.2V329.2H341Z" fill="#E4AA62"/>
<path d="M495.2 278.8C502.8 281.2 502.8 290.8 495.2 293.2L358.4 340.4C350.8 342.8 344 337.6 344 329.2V242.8C344 234.4 350.8 229.2 358.4 231.6L495.2 278.8Z" fill="#000000" fill-opacity="0.1"/>
<path d="M495.2 278.8C502.8 281.2 502.8 290.8 495.2 293.2L358.4 340.4C350.8 342.8 344 337.6 344 329.2V242.8C344 234.4 350.8 229.2 358.4 231.6L495.2 278.8Z" fill="#000000" fill-opacity="0.01"/>
<path d="M238.206 213.558L132.606 273.758C127.806 276.458 122.106 276.458 117.306 273.758L11.7056 213.558C6.90561 210.858 4.10561 205.658 4.10561 200.058V78.4578C4.10561 72.8578 6.90561 67.6578 11.7056 64.9578L117.306 4.75781C122.106 2.05781 127.806 2.05781 132.606 4.75781L238.206 64.9578C243.006 67.6578 245.806 72.8578 245.806 78.4578V200.058C245.806 205.658 243.006 210.858 238.206 213.558Z" fill-opacity="0.01"/>
<path d="M608.204 433.82C608.204 433.82 595.604 402.02 553.604 402.02C511.604 402.02 499.004 433.82 499.004 433.82L517.004 429.32L553.604 456.02L590.204 429.32L608.204 433.82Z" fill-opacity="0.01"/>
<defs>
<linearGradient id="paint0_linear_5_85" x1="124.906" y1="278.158" x2="124.906" y2="-1.14219" gradientUnits="userSpaceOnUse">
<stop stop-color="#E1A453"/>
<stop offset="1" stop-color="#E8B873"/>
</linearGradient>
<linearGradient id="paint1_linear_5_85" x1="344" y1="286" x2="512" y2="286" gradientUnits="userSpaceOnUse">
<stop stop-color="#78D1C5"/>
<stop offset="1" stop-color="#4C9E93"/>
</linearGradient>
<radialGradient id="paint2_radial_5_85" cx="0" cy="0" r="1" gradientUnits="userSpaceOnUse" gradientTransform="translate(410 158.019) rotate(90) scale(30)">
<stop stop-color="white" stop-opacity="0.6"/>
<stop offset="1" stop-color="white" stop-opacity="0"/>
</radialGradient>
<radialGradient id="paint3_radial_5_85" cx="0" cy="0" r="1" gradientUnits="userSpaceOnUse" gradientTransform="translate(315 160) rotate(90) scale(31)">
<stop stop-color="white" stop-opacity="0.6"/>
<stop offset="1" stop-color="white" stop-opacity="0"/>
</radialGradient>
<radialGradient id="paint4_radial_5_85" cx="0" cy="0" r="1" gradientUnits="userSpaceOnUse" gradientTransform="translate(315 100) rotate(90) scale(31)">
<stop stop-color="white" stop-opacity="0.6"/>
<stop offset="1" stop-color="white" stop-opacity="0"/>
</radialGradient>
<radialGradient id="paint5_radial_5_85" cx="0" cy="0" r="1" gradientUnits="userSpaceOnUse" gradientTransform="translate(316 220) rotate(90) scale(31)">
<stop stop-color="white" stop-opacity="0.6"/>
<stop offset="1" stop-color="white" stop-opacity="0"/>
</radialGradient>
<linearGradient id="paint6_linear_5_85" x1="344" y1="286" x2="512" y2="286" gradientUnits="userSpaceOnUse">
<stop stop-color="#C5926A"/>
<stop offset="1" stop-color="#AD764C"/>
</linearGradient>
<linearGradient id="paint7_linear_5_85" x1="125" y1="278" x2="125" y2="3" gradientUnits="userSpaceOnUse">
<stop stop-color="#E1A453"/>
<stop offset="1" stop-color="#E8B873"/>
</linearGradient>
<linearGradient id="paint8_linear_5_85" x1="344" y1="286" x2="512" y2="286" gradientUnits="userSpaceOnUse">
<stop stop-color="#E8B873"/>
<stop offset="1" stop-color="#D29D5D"/>
</linearGradient>
<linearGradient id="paint9_linear_5_85" x1="344" y1="286" x2="512" y2="286" gradientUnits="userSpaceOnUse">
<stop stop-color="#55B3A5"/>
<stop offset="1" stop-color="#4C9E93"/>
</linearGradient>
<linearGradient id="paint10_linear_5_85" x1="400" y1="450" x2="600" y2="450" gradientUnits="userSpaceOnUse">
<stop stop-color="#E8B873"/>
<stop offset="1" stop-color="#D29D5D"/>
</linearGradient>
<linearGradient id="paint11_linear_5_85" x1="400" y1="450" x2="600" y2="450" gradientUnits="userSpaceOnUse">
<stop stop-color="#55B3A5"/>
<stop offset="1" stop-color="#4C9E93"/>
</linearGradient>
<linearGradient id="paint12_linear_5_85" x1="400" y1="450" x2="600" y2="450" gradientUnits="userSpaceOnUse">
<stop stop-color="#E4AA62"/>
<stop offset="1" stop-color="#D29D5D"/>
</linearGradient>
<linearGradient id="paint13_linear_5_85" x1="460" y1="450" x2="540" y2="450" gradientUnits="userSpaceOnUse">
<stop stop-color="#55B3A5"/>
<stop offset="1" stop-color="#4C9E93"/>
</linearGradient>
<linearGradient id="paint14_linear_5_85" x1="460" y1="450" x2="540" y2="450" gradientUnits="userSpaceOnUse">
<stop stop-color="#E4AA62"/>
<stop offset="1" stop-color="#D29D5D"/>
</linearGradient>
<linearGradient id="paint15_linear_5_85" x1="460" y1="450" x2="540" y2="450" gradientUnits="userSpaceOnUse">
<stop stop-color="#326B63"/>
<stop offset="1" stop-color="#4C9E93"/>
</linearGradient>
<linearGradient id="paint16_linear_5_85" x1="460" y1="450" x2="540" y2="450" gradientUnits="userSpaceOnUse">
<stop stop-color="#D29D5D"/>
<stop offset="1" stop-color="#AD764C"/>
</linearGradient>
<linearGradient id="paint17_linear_5_85" x1="499" y1="429" x2="608.2" y2="429" gradientUnits="userSpaceOnUse">
<stop stop-color="#55B3A5"/>
<stop offset="1" stop-color="#4C9E93"/>
</linearGradient>
<linearGradient id="paint18_linear_5_85" x1="499" y1="429" x2="608.2" y2="429" gradientUnits="userSpaceOnUse">
<stop stop-color="#E4AA62"/>
<stop offset="1" stop-color="#D29D5D"/>
</linearGradient>
<linearGradient id="paint19_linear_5_85" x1="499" y1="429" x2="608.2" y2="429" gradientUnits="userSpaceOnUse">
<stop stop-color="#326B63"/>
<stop offset="1" stop-color="#4C9E93"/>
</linearGradient>
<linearGradient id="paint20_linear_5_85" x1="499" y1="429" x2="608.2" y2="429" gradientUnits="userSpaceOnUse">
<stop stop-color="#D29D5D"/>
<stop offset="1" stop-color="#AD764C"/>
</linearGradient>
<linearGradient id="paint21_linear_5_85" x1="499" y1="429" x2="608.2" y2="429" gradientUnits="userSpaceOnUse">
<stop stop-color="#D29D5D"/>
<stop offset="1" stop-color="#E4AA62"/>
</linearGradient>
<linearGradient id="paint22_linear_5_85" x1="499" y1="429" x2="608.2" y2="429" gradientUnits="userSpaceOnUse">
<stop stop-color="#3D7D74"/>
<stop offset="1" stop-color="#326B63"/>
</linearGradient>
<linearGradient id="paint23_linear_5_85" x1="344" y1="286" x2="512" y2="286" gradientUnits="userSpaceOnUse">
<stop stop-color="#55B3A5"/>
<stop offset="1" stop-color="#4C9E93"/>
</linearGradient>
</defs>
</svg>
