<svg width="303" height="300" viewBox="0 0 303 300" fill="none" xmlns="http://www.w3.org/2000/svg">
<path d="M115.53 7.89C115.53 7.89 122.03 20.12 109.28 24.12C96.53 28.12 68.42 21.04 68.42 21.04C68.42 21.04 77.03 32.29 64.91 38.04C52.79 43.79 38.03 44.04 38.03 44.04C38.03 44.04 46.79 56.41 38.03 64.54C29.27 72.66 23.03 72.54 23.03 72.54C23.03 72.54 29.27 82.91 21.77 91.54C14.27 100.16 11.27 98.41 11.27 98.41C11.27 98.41 14.52 108.91 7.02 116.54C-0.48 124.16 -1.23 122.16 -1.23 122.16L-1.23 206.55C-1.23 206.55 13.91 204.68 18.03 194.29C22.16 183.91 21.66 170.29 21.66 170.29L47.03 172.91C47.03 172.91 46.41 184.29 55.41 190.29C64.41 196.29 76.53 192.17 76.53 192.17L78.41 214.42C78.41 214.42 89.28 213.79 96.41 220.04C103.53 226.29 101.03 234.67 101.03 234.67L124.66 231.79C124.66 231.79 127.16 220.29 137.66 216.54C148.16 212.79 157.03 218.42 157.03 218.42L159.28 240.79C159.28 240.79 171.41 243.67 179.78 238.92C188.16 234.17 189.28 226.17 189.28 226.17L209.66 232.04C209.66 232.04 213.91 242.79 224.28 244.67C234.66 246.54 242.03 241.92 242.03 241.92L241.66 262.54C241.66 262.54 252.16 267.42 261.28 262.92C270.41 258.42 272.28 251.04 272.28 251.04L285.91 261.04C285.91 261.04 296.28 261.54 300.53 254.42C304.78 247.29 301.91 239.54 301.91 239.54C301.91 239.54 290.78 181.17 288.78 174.54C286.78 167.92 276.16 161.42 276.16 161.42L251.66 158.41C251.66 158.41 262.16 152.04 266.66 142.41C271.16 132.79 269.41 120.67 269.41 120.67L244.91 123.67C244.91 123.67 242.16 112.54 231.91 108.67C221.66 104.79 213.41 110.67 213.41 110.67L211.28 88.41C211.28 88.41 200.03 84.91 192.53 90.67C185.03 96.42 186.91 104.92 186.91 104.92L165.78 101.41C165.78 101.41 162.78 90.04 152.53 86.41C142.28 82.79 133.78 88.29 133.78 88.29L136.03 66.04C136.03 66.04 146.91 62.17 155.53 66.67C164.16 71.17 167.53 78.42 167.53 78.42L188.78 74.54C188.78 74.54 193.16 63.67 203.41 61.54C213.66 59.42 221.53 64.92 221.53 64.92L221.78 44.54C221.78 44.54 231.66 39.54 241.16 43.67C250.66 47.79 253.91 55.42 253.91 55.42L267.41 45.42C267.41 45.42 277.28 44.54 281.91 37.42C286.53 30.29 283.66 22.54 283.66 22.54C283.66 22.54 283.91 2.29 261.28 0.17C238.66 -2.08 178.28 7.04 178.28 7.04L115.53 7.89Z" fill="url(#paint0_linear_5_11)"/>
<path d="M129.85 10.12C130.43 10.32 130.82 10.89 130.74 11.51L128.53 28.58C128.45 29.2 127.94 29.68 127.34 29.74L110.02 31.42C109.4 31.48 108.89 31 108.83 30.38L106.83 13.57C106.77 12.95 107.22 12.39 107.82 12.3L125.14 10.62C125.74 10.56 126.31 11 126.37 11.62L126.79 15.77L127.27 15.73L126.85 11.58C126.73 10.32 125.54 9.49 124.32 9.59L107.01 11.27C105.78 11.37 104.85 12.44 104.85 13.68L106.85 30.49C106.91 31.75 107.92 32.65 109.16 32.59L126.48 30.91C127.72 30.85 128.79 29.83 128.91 28.59L131.12 11.52C131.24 10.26 130.29 9.16 129.07 9.06L128.67 9.03L129.85 10.12Z" fill="#756454"/>
<path d="M109.84 13.43L126.11 11.83L128.32 28.84L112.05 30.44L109.84 13.43Z" fill="#8E7A68"/>
<path d="M126.54 11.41L109.91 13.06L111.75 29.98L128.38 28.33L126.54 11.41Z" fill="#9F8975"/>
<path d="M129.07 9.06L106.85 11.37C105.78 11.37 104.85 12.44 104.85 13.68L106.85 30.49C106.91 31.75 107.92 32.65 109.16 32.59L129.07 30.77C130.16 30.77 131.12 29.83 131.12 28.59L129.07 9.06Z" fill="#9F8975"/>
<path d="M127.34 29.74L110.02 31.42C109.4 31.48 108.89 31 108.83 30.38L106.83 13.57C106.77 12.95 107.22 12.39 107.82 12.3L125.14 10.62C125.74 10.56 126.31 11 126.37 11.62L128.58 28.69C128.64 29.31 128.1 29.83 127.48 29.89L127.34 29.74Z" fill="#A8927E"/>
<path d="M129.01 27.42L127.31 13.49L125.96 13.6L127.66 27.53L129.01 27.42Z" fill="#847160"/>
<path d="M125.11 26.6L123.41 12.67L122.06 12.78L123.76 26.71L125.11 26.6Z" fill="#847160"/>
<path d="M121.21 25.77L119.51 11.84L118.16 11.95L119.86 25.88L121.21 25.77Z" fill="#847160"/>
<path d="M117.31 24.95L115.61 11.02L114.26 11.13L115.96 25.06L117.31 24.95Z" fill="#847160"/>
<path d="M113.41 24.13L111.71 10.2L110.36 10.31L112.06 24.24L113.41 24.13Z" fill="#847160"/>
<path d="M129.85 10.12C130.43 10.32 130.82 10.89 130.74 11.51L129.13 25.48C129.05 26.1 128.54 26.58 127.94 26.64L110.62 28.32C110 28.38 109.49 28.9 109.43 27.28L107.43 10.47C107.37 9.85 107.82 9.29 108.42 9.2L125.74 7.52C126.34 7.46 126.91 7.9 126.97 8.52L127.39 12.67L127.87 12.63L127.45 8.48C127.33 7.22 126.14 6.39 124.92 6.49L107.61 8.17C106.38 8.27 105.45 9.34 105.45 10.58L107.45 27.39C107.51 28.65 108.52 29.55 109.76 29.49L127.08 27.81C128.32 27.75 129.39 26.73 129.51 25.49L131.12 11.52C131.24 10.26 130.29 9.16 129.07 9.06L128.67 9.03L129.85 10.12Z" fill="#756454"/>
<path d="M108.44 10.33L124.71 8.73L126.92 25.74L110.65 27.34L108.44 10.33Z" fill="#8E7A68"/>
<path d="M125.14 8.31L108.51 9.96L110.35 26.88L126.98 25.23L125.14 8.31Z" fill="#9F8975"/>
<path d="M127.67 5.96L105.45 8.27C104.38 8.27 103.45 9.34 103.45 10.58L105.45 27.39C105.51 28.65 106.52 29.55 107.76 29.49L127.67 27.67C128.76 27.67 129.72 26.73 129.72 25.49L127.67 5.96Z" fill="#9F8975"/>
<a:gradient_9F8975_000000_0>
<stop offset="0" stop-color="#9F8975"/>
<stop offset="1" stop-color="#9F8975" stop-opacity="0"/>
</a:gradient_9F8975_000000_0>
<path d="M127.67 5.96L105.45 8.27C104.38 8.27 103.45 9.34 103.45 10.58L105.45 27.39C105.51 28.65 106.52 29.55 107.76 29.49L127.67 27.67C128.76 27.67 129.72 26.73 129.72 25.49L127.67 5.96Z" fill="url(#a:gradient_9F8975_000000_0)"/>
<path d="M127.94 26.64L110.62 28.32C110 28.38 109.49 28.9 109.43 27.28L107.43 10.47C107.37 9.85 107.82 9.29 108.42 9.2L125.74 7.52C126.34 7.46 126.91 7.9 126.97 8.52L129.18 25.59C129.24 26.21 128.7 26.73 128.08 26.79L127.94 26.64Z" fill="#A8927E"/>
<path d="M127.61 24.32L125.91 10.39L124.56 10.5L126.26 24.43L127.61 24.32Z" fill="#847160"/>
<path d="M123.71 23.5L122.01 9.57L120.66 9.68L122.36 23.61L123.71 23.5Z" fill="#847160"/>
<path d="M119.81 22.67L118.11 8.74L116.76 8.85L118.46 22.78L119.81 22.67Z" fill="#847160"/>
<path d="M115.91 21.85L114.21 7.92L112.86 8.03L114.56 21.96L115.91 21.85Z" fill="#847160"/>
<path d="M112.01 21.03L110.31 7.1L108.96 7.21L110.66 21.14L112.01 21.03Z" fill="#847160"/>
<path d="M149.52 69.17L149.52 69.17C150.32 68.61 150.93 67.8 151.21 66.86L164.12 28.5C164.4 27.56 164.21 26.54 163.65 25.73C163.09 24.92 162.22 24.42 161.27 24.42L147.28 24.42C146.33 24.42 145.46 24.92 144.9 25.73C144.34 26.54 144.15 27.56 144.43 28.5L157.34 66.86C157.62 67.8 158.23 68.61 159.03 69.17L159.03 69.17C159.83 69.73 160.82 69.83 161.76 69.44C162.7 69.05 163.45 68.21 163.65 67.24L163.65 67.24C163.45 68.21 162.7 69.05 161.76 69.44C160.82 69.83 159.83 69.73 159.03 69.17L158.82 68.58L145.91 30.22C145.63 29.28 145.82 28.26 146.38 27.45C146.94 26.64 147.81 26.14 148.76 26.14L148.76 26.14C147.81 26.14 146.94 26.64 146.38 27.45C145.82 28.26 145.63 29.28 145.91 30.22L158.82 68.58L159.03 69.17C158.23 68.61 157.62 67.8 157.34 66.86L144.43 28.5C144.15 27.56 144.34 26.54 144.9 25.73C145.46 24.92 146.33 24.42 147.28 24.42L161.27 24.42C162.22 24.42 163.09 24.92 163.65 25.73C164.21 26.54 164.4 27.56 164.12 28.5L151.21 66.86C150.93 67.8 150.32 68.61 149.52 69.17L149.52 69.17Z" fill="#756454"/>
<path d="M147.01 25.33L161.54 25.33L151.28 67.57L158.78 67.57L145.54 28.57L146.94 28.23L159.34 68.3L150.28 68.3L163.28 28.23L161.94 26.07L147.4 26.07L147.01 25.33Z" fill="#8E7A68"/>
<path d="M162.59 26.38L146.59 26.38L158.09 68.38L159.99 68.38L148.59 26.38L162.59 26.38L162.59 26.38Z" fill="#9F8975"/>
<path d="M149.03 69.17C149.83 69.73 150.82 69.83 151.76 69.44C152.7 69.05 153.45 68.21 153.65 67.24L163.65 28.5C163.93 27.56 163.74 26.54 163.18 25.73C162.62 24.92 161.75 24.42 160.8 24.42L146.81 24.42C145.86 24.42 144.99 24.92 144.43 25.73C143.87 26.54 143.68 27.56 143.96 28.5L153.96 67.24C154.24 68.21 154.85 69.02 155.65 69.58C156.45 70.14 157.44 70.24 158.38 69.85C159.32 69.46 160.07 68.62 160.27 67.65L160.27 67.65C160.07 68.62 159.32 69.46 158.38 69.85C157.44 70.24 156.45 70.14 155.65 69.58L155.45 68.99L145.45 30.25C145.17 29.31 145.36 28.29 145.92 27.48C146.48 26.67 147.35 26.17 148.3 26.17L148.3 26.17C147.35 26.17 146.48 26.67 145.92 27.48C145.36 28.29 145.17 29.31 145.45 30.25L155.45 68.99L155.65 69.58C154.85 69.01 154.24 68.2 153.96 67.24L143.96 28.5C143.68 27.56 143.87 26.54 144.43 25.73C144.99 24.92 145.86 24.42 146.81 24.42L160.8 24.42C161.75 24.42 162.62 24.92 163.18 25.73C163.74 26.54 163.93 27.56 163.65 28.5L153.65 67.24C153.37 68.21 152.76 69.02 151.96 69.58C151.16 70.14 150.17 70.24 149.23 69.85C148.29 69.46 147.54 68.62 147.34 67.65L147.34 67.65C147.54 68.62 148.29 69.46 149.23 69.85C150.17 70.24 151.16 70.14 151.96 69.58L152.17 68.99L152.37 69.58C151.57 70.14 150.58 70.24 149.64 69.85C148.7 69.46 147.95 68.62 147.75 67.65L147.75 67.65C147.95 68.62 148.7 69.46 149.64 69.85C150.58 70.24 151.57 70.14 152.37 69.58L152.58 68.99L152.78 69.58C151.98 70.14 151 70.24 150.06 69.85C149.12 69.46 148.37 68.62 148.17 67.65L148.17 67.65C148.37 68.62 149.12 69.46 150.06 69.85C151 70.24 151.98 70.14 152.78 69.58L152.99 68.99L142.99 30.25C142.71 29.31 142.89 28.29 143.45 27.48C144.01 26.67 144.88 26.17 145.83 26.17L145.83 26.17C144.88 26.17 144.01 26.67 143.45 27.48C142.89 28.29 142.71 29.31 142.99 30.25L152.99 68.99L152.78 69.58C151.98 69.01 151.37 68.2 151.09 67.24L141.09 28.5C140.81 27.56 141 26.54 141.56 25.73C142.12 24.92 142.99 24.42 143.94 24.42L157.93 24.42C158.88 24.42 159.75 24.92 160.31 25.73C160.87 26.54 161.06 27.56 160.78 28.5L150.78 67.24C150.5 68.21 149.89 69.02 149.09 69.58C148.29 70.14 147.3 70.24 146.36 69.85C145.42 69.46 144.67 68.62 144.47 67.65L144.47 67.65C144.67 68.62 145.42 69.46 146.36 69.85C147.3 70.24 148.29 70.14 149.09 69.58L149.29 68.99L149.03 69.17Z" fill="#A8927E"/>
<path d="M196.44 26.8C197.3 26.43 198.01 25.79 198.42 24.99L212.71 0.49C213.12 -0.31 213.04 -1.29 212.44 -2.03C211.84 -2.77 210.87 -3.12 210 -3.12L194.25 -3.12C193.38 -3.12 192.41 -2.77 191.81 -2.03C191.21 -1.29 191.13 -0.31 191.54 0.49L205.83 24.99C206.24 25.79 206.95 26.43 207.81 26.8C208.67 27.17 209.64 27.09 210.43 26.58C211.22 26.07 211.73 25.2 211.82 24.28L211.82 24.28C211.73 25.2 211.22 26.07 210.43 26.58C209.64 27.09 208.67 27.17 207.81 26.8L207.59 26.7L193.3 2.2C192.89 1.4 192.97 0.42 193.57 -0.32C194.17 -1.06 195.14 -1.41 196 -1.41L196 -1.41C195.14 -1.41 194.17 -1.06 193.57 -0.32C192.97 0.42 192.89 1.4 193.3 2.2L207.59 26.7L207.81 26.8C206.95 26.43 206.24 25.79 205.83 24.99L191.54 0.49C191.13 -0.31 191.21 -1.29 191.81 -2.03C192.41 -2.77 193.38 -3.12 194.25 -3.12L210 -3.12C210.87 -3.12 211.84 -2.77 212.44 -2.03C213.04 -1.29 213.12 -0.31 212.71 0.49L198.42 24.99C198.01 25.79 197.3 26.43 196.44 26.8L196.44 26.8Z" fill="#756454"/>
<path d="M193.75 -2.21L210.5 -2.21L206.35 24.9L207.56 25.23L191.95 0.23L193.35 -0.11L208.19 26.04L205.35 25.56L212.19 -0.11L210.9 -1.47L194.14 -1.47L193.75 -2.21Z" fill="#8E7A68"/>
<path d="M211.51 -1.1L193.41 -1.1L205.31 25.8L208.41 25.8L196.51 -1.1L211.51 -1.1L211.51 -1.1Z" fill="#9F8975"/>
<path d="M196.44 26.8C197.3 27.17 198.27 27.09 199.06 26.58C199.85 26.07 200.36 25.2 200.45 24.28L211.66 0.49C211.95 -0.31 211.75 -1.29 211.1 -2.03C210.45 -2.77 209.43 -3.12 208.51 -3.12L192.76 -3.12C191.84 -3.12 190.82 -2.77 190.17 -2.03C189.52 -1.29 189.32 -0.31 189.61 0.49L200.82 24.28C201.11 25.08 201.69 25.76 202.43 26.21C203.17 26.66 204.04 26.85 204.91 26.75C205.78 26.65 206.56 26.26 207.13 25.65L207.13 25.65C206.56 26.26 205.78 26.65 204.91 26.75C204.04 26.85 203.17 26.66 202.43 26.21L202.24 26.1L191.03 2.31C190.74 1.51 190.94 0.53 191.59 -0.19C192.24 -0.91 193.26 -1.23 194.2 -1.23L194.2 -1.23C193.26 -1.23 192.24 -0.91 191.59 -0.19C190.94 0.53 190.74 1.51 191.03 2.31L202.24 26.1L202.43 26.21C201.69 25.76 201.11 25.08 200.82 24.28L189.61 0.49C189.32 -0.31 189.52 -1.29 190.17 -2.03C190.82 -2.77 191.84 -3.12 192.76 -3.12L208.51 -3.12C209.43 -3.12 210.45 -2.77 211.1 -2.03C211.75 -1.29 211.95 -0.31 211.66 0.49L200.45 24.28C200.16 25.08 199.58 25.76 198.84 26.21C198.1 26.66 197.23 26.85 196.36 26.75C195.49 26.65 194.71 26.26 194.14 25.65L194.14 25.65C194.71 26.26 195.49 26.65 196.36 26.75C197.23 26.85 198.1 26.66 198.84 26.21L199.03 26.1L199.23 26.21C198.49 26.66 197.62 26.85 196.75 26.75C195.88 26.65 195.1 26.26 194.53 25.65L194.53 25.65C195.1 26.26 195.88 26.65 196.75 26.75C197.62 26.85 198.49 26.66 199.23 26.21L199.42 26.1L199.62 26.21C198.88 26.66 198.01 26.85 197.14 26.75C196.27 26.65 195.49 26.26 194.92 25.65L194.92 25.65C195.49 26.26 196.27 26.65 197.14 26.75C198.01 26.85 198.88 26.66 199.62 26.21L199.81 26.1L188.6 2.31C188.31 1.51 188.51 0.53 189.16 -0.19C189.81 -0.91 190.83 -1.23 191.75 -1.23L191.75 -1.23C190.83 -1.23 189.81 -0.91 189.16 -0.19C188.51 0.53 188.31 1.51 188.6 2.31L199.81 26.1L199.62 26.21C198.88 25.76 198.3 25.08 198.01 24.28L186.8 0.49C186.51 -0.31 186.71 -1.29 187.36 -2.03C188.01 -2.77 189.03 -3.12 189.95 -3.12L205.7 -3.12C206.62 -3.12 207.64 -2.77 208.29 -2.03C208.94 -1.29 209.14 -0.31 208.85 0.49L197.64 24.28C197.35 25.08 196.77 25.76 196.03 26.21C195.29 26.66 194.42 26.85 193.55 26.75C192.68 26.65 191.9 26.26 191.33 25.65L191.33 25.65C191.9 26.26 192.68 26.65 193.55 26.75C194.42 26.85 195.29 26.66 196.03 26.21L196.22 26.1L196.44 26.8Z" fill="#A8927E"/>
<path d="M174.58 128.51C174.91 127.81 174.83 126.96 174.37 126.27L160.37 104.91C159.91 104.22 159.13 103.77 158.28 103.77L142.15 103.77C141.3 103.77 140.52 104.22 140.06 104.91L126.06 126.27C125.6 126.96 125.52 127.81 125.85 128.51C126.18 129.21 126.88 129.7 127.71 129.7L147.28 129.7L153.15 129.7L172.72 129.7C173.55 129.7 174.25 129.21 174.58 128.51ZM158.28 105.49L170.83 126.27H159.15L158.28 105.49Z" fill="#54A684"/>
<path d="M165.71 158.74C166.04 158.04 165.96 157.19 165.5 156.5L151.5 135.14C151.04 134.45 150.26 134 149.41 134L133.28 134C132.43 134 131.65 134.45 131.19 135.14L117.19 156.5C116.73 157.19 116.65 158.04 116.98 158.74C117.31 159.44 118.01 159.93 118.84 159.93L138.41 159.93L144.28 159.93L163.85 159.93C164.68 159.93 165.38 159.44 165.71 158.74ZM149.41 135.72L161.96 156.5H150.28L149.41 135.72Z" fill="#62BD92"/>
<path d="M153.15 129.7H147.28L127.71 129.7C126.88 129.7 126.18 129.21 125.85 128.51C125.52 127.81 125.6 126.96 126.06 126.27L140.06 104.91C140.52 104.22 141.3 103.77 142.15 103.77H158.28C159.13 103.77 159.91 104.22 160.37 104.91L174.37 126.27C174.83 126.96 174.91 127.81 174.58 128.51C174.25 129.21 173.55 129.7 172.72 129.7H153.15Z" fill="#5BAD8B"/>
<path d="M150.28 156.5H161.96L149.41 135.72L150.28 156.5Z" fill="#54A684"/>
<path d="M144.28 159.93H138.41L118.84 159.93C118.01 159.93 117.31 159.44 116.98 158.74C116.65 158.04 116.73 157.19 117.19 156.5L131.19 135.14C131.65 134.45 132.43 134 133.28 134H149.41C150.26 134 151.04 134.45 151.5 135.14L165.5 156.5C165.96 157.19 166.04 158.04 165.71 158.74C165.38 159.44 164.68 159.93 163.85 159.93H144.28Z" fill="#59AD8A"/>
<path d="M159.15 126.27H170.83L158.28 105.49L159.15 126.27Z" fill="#62BD92"/>
<path d="M165.71 158.74C166.04 158.04 165.96 157.19 165.5 156.5L151.5 135.14C151.04 134.45 150.26 134 149.41 134H133.28C132.43 134 131.65 134.45 131.19 135.14L117.19 156.5C116.73 157.19 116.65 158.04 116.98 158.74C117.31 159.44 118.01 159.93 118.84 159.93L138.41 159.93L144.28 159.93L163.85 159.93C164.68 159.93 165.38 159.44 165.71 158.74ZM149.41 135.72L161.96 156.5H150.28L149.41 135.72Z" fill="#62BD92"/>
<path d="M165.71 158.74C166.04 158.04 165.96 157.19 165.5 156.5L151.5 135.14C151.04 134.45 150.26 134 149.41 134H133.28C132.43 134 131.65 134.45 131.19 135.14L117.19 156.5C116.73 157.19 116.65 158.04 116.98 158.74C117.31 159.44 118.01 159.93 118.84 159.93L138.41 159.93L144.28 159.93L163.85 159.93C164.68 159.93 165.38 159.44 165.71 158.74ZM149.41 135.72L161.96 156.5H150.28L149.41 135.72Z" fill="#62BD92"/>
<path d="M153.15 129.7H147.28L127.71 129.7C126.88 129.7 126.18 129.21 125.85 128.51C125.52 127.81 125.6 126.96 126.06 126.27L140.06 104.91C140.52 104.22 141.3 103.77 142.15 103.77H158.28C159.13 103.77 159.91 104.22 160.37 104.91L174.37 126.27C174.83 126.96 174.91 127.81 174.58 128.51C174.25 129.21 173.55 129.7 172.72 129.7H153.15Z" fill="#5BAD8B"/>
<path d="M144.28 159.93H138.41L118.84 159.93C118.01 159.93 117.31 159.44 116.98 158.74C116.65 158.04 116.73 157.19 117.19 156.5L131.19 135.14C131.65 134.45 132.43 134 133.28 134H149.41C150.26 134 151.04 134.45 151.5 135.14L165.5 156.5C165.96 157.19 166.04 158.04 165.71 158.74C165.38 159.44 164.68 159.93 163.85 159.93H144.28Z" fill="#59AD8A"/>
<path d="M150.28 156.5H161.96L149.41 135.72L150.28 156.5Z" fill="#54A684"/>
<path d="M159.15 126.27H170.83L158.28 105.49L159.15 126.27Z" fill="#62BD92"/>
<defs>
<linearGradient id="paint0_linear_5_11" x1="150.28" y1="0.17" x2="150.28" y2="262.92" gradientUnits="userSpaceOnUse">
<stop stop-color="#DEA664"/>
<stop offset="1" stop-color="#E5821F"/>
</linearGradient>
</defs>
</svg>
