<svg width="343" height="343" viewBox="0 0 343 343" fill="none" xmlns="http://www.w3.org/2000/svg">
<path d="M171.5 0L331.422 93.25V279.75L171.5 373L11.5783 279.75V93.25L171.5 0Z" stroke="#F5F5F5" stroke-opacity="0.3"/>
<path d="M11.5781 93.25L171.5 186.5L331.422 93.25" stroke="#F5F5F5" stroke-opacity="0.3"/>
<path d="M171.5 373V186.5" stroke="#F5F5F5" stroke-opacity="0.3"/>
<g opacity="0.3" filter="url(#filter0_d_1_2)">
<path d="M211.751 140.672C212.871 141.053 214.075 141.229 215.281 141.178C219.018 141.025 222.062 138.163 222.583 134.425C222.689 133.593 222.573 132.75 222.247 131.98C222.188 131.83 222.128 131.677 222.064 131.533C223.111 130.65 223.955 129.508 224.512 128.21C224.789 127.57 224.975 126.892 225.062 126.195C225.295 124.321 224.636 122.457 223.284 121.196C222.518 120.485 221.572 119.982 220.551 119.742C219.761 119.551 218.948 119.529 218.151 119.678C214.283 120.407 211.66 123.753 212.245 127.671C212.355 128.461 212.671 129.202 213.155 129.831C213.208 129.907 213.264 129.98 213.316 130.055C212.112 130.73 211.127 131.705 210.499 132.868C210.165 133.456 209.932 134.103 209.832 134.786C209.28 138.643 211.751 140.672 211.751 140.672ZM219.38 122.41C220.402 122.585 221.173 123.016 221.734 123.535C222.618 124.364 223.037 125.495 222.951 126.621C222.894 127.356 222.67 128.064 222.302 128.675C221.905 129.341 221.326 129.897 220.638 130.284C219.673 130.825 218.577 131.05 217.472 130.932C217.337 130.918 217.202 130.902 217.067 130.884C217.896 129.699 218.397 128.329 218.528 126.903C218.575 126.398 218.522 125.892 218.371 125.402C217.915 123.896 216.892 122.64 215.526 121.936C215.867 121.848 216.216 121.794 216.57 121.776C217.525 121.728 218.47 121.942 219.38 122.41ZM215.118 124.088C215.617 123.513 216.29 123.111 217.034 122.923C216.513 123.864 216.182 124.912 216.071 125.993C215.938 127.284 216.143 128.571 216.657 129.73C216.208 129.851 215.748 129.914 215.281 129.917C214.07 129.927 212.899 129.526 211.996 128.799C211.778 128.625 211.583 128.432 211.41 128.223C211.332 128.118 211.258 128.012 211.189 127.905C210.871 127.425 210.662 126.896 210.579 126.34C210.373 125.077 210.74 123.81 211.56 122.84C212.569 121.657 214.062 121.139 215.501 121.439C215.158 122.259 214.939 123.153 214.873 124.088H215.118ZM220.177 132.88C220.473 133.639 220.556 134.469 220.413 135.288C219.998 137.747 217.92 139.537 215.421 139.58C214.868 139.59 214.321 139.498 213.805 139.31C212.784 138.932 211.944 138.286 211.385 137.452C210.655 136.386 210.37 135.101 210.603 133.856C210.669 133.513 210.78 133.177 210.934 132.854C212.162 133.153 213.447 133.271 214.729 133.199C216.582 133.093 218.36 132.551 219.866 131.642C219.972 132.054 220.043 132.471 220.177 132.88Z" fill="#E6D5B8"/>
</g>
<g opacity="0.3" filter="url(#filter1_d_1_2)">
<path d="M198.544 163.666C199.117 165.253 200.086 166.671 201.353 167.801C202.162 168.513 203.099 169.07 204.111 169.432C208.204 170.906 212.871 169.583 215.539 166.195C215.865 165.779 216.12 165.31 216.3 164.801C216.234 164.651 216.162 164.504 216.088 164.354C217.436 163.951 218.665 163.268 219.689 162.348C220.198 161.884 220.638 161.357 220.995 160.781C222.091 159.011 221.905 156.762 220.553 155.035C219.756 153.992 218.665 153.228 217.424 152.839C216.438 152.518 215.405 152.41 214.398 152.554C210.231 153.111 207.288 156.721 207.971 160.916C208.106 161.761 208.455 162.559 208.982 163.22C209.055 163.321 209.13 163.42 209.204 163.518C207.728 163.856 206.398 164.484 205.283 165.346C204.721 165.792 204.254 166.326 203.905 166.953C202.775 168.835 203.905 166.953 198.544 163.666ZM218.423 155.858C219.46 156.129 220.158 156.685 220.59 157.26C221.564 158.525 221.543 160.157 220.865 161.405C220.528 161.996 220.045 162.51 219.46 162.91C218.231 163.771 216.719 164.084 215.281 163.771C215.172 163.748 215.064 163.723 214.956 163.696C215.823 162.33 216.286 160.768 216.31 159.176C216.321 158.625 216.223 158.077 216.02 157.551C215.405 155.94 214.185 154.673 212.636 154.088C212.871 153.999 213.111 153.931 213.351 153.882C214.471 153.673 215.617 153.81 216.68 154.27C217.436 154.613 218.064 155.152 218.423 155.858ZM212.449 156.405C213.064 155.518 213.918 154.912 214.863 154.662C213.717 155.875 213.064 157.411 213.003 159.023C212.923 160.84 213.432 162.623 214.406 164.12C214.07 164.218 213.728 164.288 213.38 164.326C211.897 164.494 210.457 164.129 209.288 163.295C209.026 163.111 208.791 162.902 208.573 162.671C208.47 162.545 208.371 162.417 208.277 162.288C207.756 161.644 207.415 160.875 207.316 160.111C206.948 157.94 207.823 155.781 209.526 154.496C210.558 153.699 211.897 153.308 213.194 153.496C212.727 154.453 212.449 155.496 212.449 156.405ZM219.018 166.077C219.468 167.042 219.539 168.106 219.204 169.111C218.196 172.541 214.544 174.623 210.899 173.837C210.221 173.69 209.581 173.407 209.018 172.992C207.823 172.106 207.032 170.849 206.777 169.453C206.603 168.496 206.828 167.531 207.413 166.721C208.823 166.721 210.306 166.721 211.823 166.721C214.295 166.856 216.657 166.453 218.665 165.559C218.799 165.734 218.912 165.904 219.018 166.077Z" fill="#E6D5B8"/>
</g>
<g opacity="0.3" filter="url(#filter2_d_1_2)">
<path d="M178.694 186.72C179.134 188.307 179.954 189.725 181.049 190.854C181.748 191.566 182.578 192.123 183.481 192.485C187.126 193.959 191.303 192.637 193.665 189.541C193.953 189.125 194.178 188.656 194.321 188.148C194.262 187.998 194.199 187.852 194.134 187.701C195.328 187.3 196.406 186.615 197.281 185.695C197.739 185.232 198.126 184.703 198.439 184.129C199.404 182.359 199.248 180.111 198.043 178.384C197.355 177.34 196.385 176.576 195.281 176.188C194.406 175.867 193.486 175.759 192.573 175.904C188.857 176.461 186.234 179.882 186.84 183.97C186.959 184.814 187.275 185.613 187.758 186.273C187.823 186.375 187.891 186.473 187.959 186.57C186.643 186.908 185.459 187.537 184.481 188.398C183.982 188.844 183.578 189.379 183.275 190.006C182.279 191.889 183.275 190.006 178.694 186.72ZM196.31 179.207C197.228 179.479 197.843 180.035 198.225 180.611C199.088 181.875 199.07 183.508 198.439 184.756C198.136 185.348 197.705 185.861 197.172 186.26C196.094 187.121 194.756 187.434 193.481 187.12C193.385 187.098 193.291 187.072 193.194 187.045C193.953 185.679 194.368 184.117 194.398 182.525C194.406 181.973 194.318 181.426 194.134 180.9C193.593 179.289 192.498 178.021 191.049 177.436C191.258 177.348 191.472 177.279 191.688 177.23C192.673 177.021 193.688 177.158 194.634 177.619C195.281 177.961 195.823 178.502 196.136 179.207H196.31ZM191.049 179.756C191.582 178.87 192.338 178.262 193.194 178.012C192.172 179.227 191.582 180.762 191.517 182.375C191.445 184.191 191.905 185.975 192.771 187.473C192.478 187.57 192.175 187.641 191.863 187.679C190.547 187.848 189.262 187.482 188.225 186.648C187.989 186.465 187.781 186.256 187.586 186.025C187.498 185.9 187.411 185.771 187.33 185.645C186.871 185.002 186.568 184.232 186.481 183.459C186.155 181.289 186.945 179.129 188.481 177.844C189.402 177.047 190.586 176.656 191.748 176.844C191.328 177.801 191.088 178.844 191.049 179.756ZM196.84 189.42C197.239 190.385 197.298 191.449 196.995 192.455C196.094 195.885 192.81 197.967 189.603 197.182C189.012 197.035 188.455 196.754 187.959 196.338C186.915 195.451 186.234 194.195 186.025 192.799C185.871 191.842 186.07 190.877 186.596 190.068C187.861 190.068 189.178 190.068 190.453 190.068C192.673 190.203 194.789 189.799 196.596 188.906C196.715 189.08 196.783 189.252 196.84 189.42Z" fill="#E6D5B8"/>
</g>
<path d="M124.939 123.839C127.359 123.013 129.563 122.585 131.785 122.585C134.469 122.585 137.136 123.056 139.664 123.957C146.402 126.256 151.786 132.062 153.303 139.117C153.844 141.655 153.947 144.29 153.606 146.882C152.923 151.986 149.923 156.407 145.474 158.789C143.513 159.839 141.354 160.522 139.126 160.77C137.592 160.945 136.039 160.985 134.492 160.893C132.131 160.76 129.805 160.202 127.601 159.26C120.303 156.12 115.541 149.339 114.935 141.442C114.484 135.539 116.786 129.742 121.285 125.864C122.505 124.814 123.765 124.239 124.939 123.839ZM133.518 158.337C135.529 158.337 137.489 157.971 139.317 157.26C145.696 154.675 149.923 148.618 150.844 141.655C151.157 139.26 150.932 136.839 150.189 134.527C148.873 130.342 145.541 127.067 141.232 125.792C138.837 125.049 136.265 124.777 133.727 124.777C132.321 124.777 130.935 124.945 129.56 125.271C123.837 126.562 119.539 131.42 118.933 137.28C118.423 142.332 120.655 147.245 124.601 150.417C126.837 152.097 129.419 153.28 132.131 153.852C132.582 153.94 133.042 153.992 133.518 153.992C133.518 155.107 133.518 156.222 133.518 158.337Z" fill="#E6D5B8"/>
<path d="M129.986 179.378C127.567 180.204 125.362 180.632 123.141 180.632C120.457 180.632 117.789 180.161 115.262 179.26C108.524 176.961 103.141 171.155 101.623 164.2C101.082 161.662 100.98 159.027 101.321 156.435C102.004 151.331 105.004 146.909 109.452 144.527C111.413 143.477 113.572 142.8 115.801 142.552C117.335 142.376 118.888 142.337 120.435 142.429C122.796 142.562 125.122 143.12 127.326 144.062C134.624 147.202 139.386 153.982 139.791 161.879C140.242 167.782 137.94 173.579 133.641 177.457C132.421 178.507 131.162 179.082 129.986 179.482ZM121.789 144.977C119.778 144.977 117.818 145.343 115.991 146.055C109.612 148.639 105.385 154.697 104.464 161.659C104.152 164.054 104.376 166.476 105.119 168.788C106.435 172.973 109.768 176.248 114.076 177.523C116.471 178.266 119.043 178.538 121.582 178.538C122.988 178.538 124.374 178.37 125.75 178.044C131.472 176.753 135.77 171.895 136.376 166.035C136.886 160.983 134.654 156.07 130.709 152.898C128.473 151.218 125.891 150.035 123.179 149.462C122.728 149.374 122.268 149.322 121.789 149.322C121.789 147.874 121.789 146.425 121.789 144.977Z" fill="#E6D5B8"/>
</g>
</svg>
